<?xml version="1.0" encoding="UTF-8"?>
<svg width="16px" height="16px" viewBox="0 0 16 16" version="1.1" xmlns="http://www.w3.org/2000/svg" xmlns:xlink="http://www.w3.org/1999/xlink">
    <!-- Generator: sketchtool 51.3 (57544) - http://www.bohemiancoding.com/sketch -->
    <title>16261F4E-E579-413F-B1BB-B77AA0373472</title>
    <desc>Created with sketchtool.</desc>
    <defs></defs>
    <g id="Page-1" stroke="none" stroke-width="1" fill="none" fill-rule="evenodd">
        <g id="Wiki_view_page_hamburguer" transform="translate(-785.000000, -129.000000)" fill="#21AAE7" fill-rule="nonzero">
            <g id="ico-edit" transform="translate(785.000000, 129.000000)">
                <path d="M14.556,4.008 L3.62088889,14.9422222 C3.51422222,15.0497778 3.37866667,15.1244444 3.23111111,15.1582222 L0.994222222,15.6782222 C0.721777778,15.7408889 0.435111111,15.6591111 0.237333333,15.4613333 C0.0391111111,15.264 -0.0426666667,14.9768889 0.0213333333,14.7044444 L0.539111111,12.4688889 C0.573333333,12.3204444 0.648444444,12.1844444 0.755555556,12.0773333 L11.6906667,1.14311111 L12.8364444,2.28933333 L2.09288889,13.0315556 C1.93422222,13.1893333 1.93422222,13.448 2.09288889,13.6053333 C2.25066667,13.764 2.508,13.7631111 2.66622222,13.6053333 L13.4106667,2.86177778 L14.556,4.008 Z M15.4617778,3.10222222 C15.7786667,2.78533333 15.7786667,2.272 15.4617778,1.95466667 L13.744,0.237333333 C13.4271111,-0.0791111111 12.9133333,-0.0791111111 12.5964444,0.237333333 L12.1568889,0.676 L15.0231111,3.54133333 L15.4617778,3.10222222 Z M4.96044444,15.4124444 L15.516,15.4124444 L15.516,14.6208889 L4.96044444,14.6208889 L4.96044444,15.4124444 Z" id="Shape"></path>
            </g>
        </g>
    </g>
</svg>