<?xml version="1.0" encoding="utf-8"?>
<!-- Generator: Adobe Illustrator 23.0.1, SVG Export Plug-In . SVG Version: 6.00 Build 0)  -->
<svg version="1.1" id="Capa_1" xmlns="http://www.w3.org/2000/svg" xmlns:xlink="http://www.w3.org/1999/xlink" x="0px" y="0px"
	 viewBox="0 0 60 60" style="enable-background:new 0 0 60 60;" xml:space="preserve">
<style type="text/css">
	.st0{fill-rule:evenodd;clip-rule:evenodd;fill:#F2F6F7;}
	.st1{stroke:#F2F6F7;stroke-width:0.5;stroke-miterlimit:10;}
	.st2{fill:#00E7E2;}
	.st3{opacity:0.3;enable-background:new    ;}
</style>
<g>
	<circle class="st0" cx="30" cy="30" r="30"/>
</g>
<title>Icon_Not_Found</title>
<g>
	<g>
		<g>
			<g>
				<path class="st1" d="M45.6,24.7c-1.1-1.1-2.8-1.1-3.8,0c-0.3,0.3-2.4,2.4-2.7,2.7v-7.1c0-0.7-0.3-1.4-0.8-1.9l-2.5-2.5
					c-0.5-0.5-1.2-0.8-1.9-0.8H18.3c-1.5,0-2.7,1.2-2.7,2.7v25.4c0,1.5,1.2,2.7,2.7,2.7h18c1.5,0,2.7-1.2,2.7-2.7v-8l6.5-6.5
					C46.6,27.5,46.6,25.8,45.6,24.7z M33.6,16.9c0.2,0,0.5,0,0.8,0.3l2.5,2.5c0.3,0.3,0.3,0.6,0.3,0.8h-3.6V16.9z M37.3,43.1
					c0,0.5-0.4,0.9-0.9,0.9h-18c-0.5,0-0.9-0.4-0.9-0.9V17.8c0-0.5,0.4-0.9,0.9-0.9h13.5v4.5c0,0.5,0.4,0.9,0.9,0.9h4.5v7L34.6,32
					l-1.3,1.3c-0.1,0.1-0.2,0.2-0.2,0.4l-1.3,3.8c-0.1,0.3,0,0.7,0.2,0.9s0.6,0.3,0.9,0.2l3.8-1.3c0.1,0,0.3-0.1,0.4-0.2l0.1-0.1
					L37.3,43.1L37.3,43.1z M35.2,33.8l1.3,1.3L36,35.6l-1.9,0.6l0.6-1.9L35.2,33.8z M37.8,33.8l-1.3-1.3c0.7-0.7,3.7-3.7,4.3-4.3
					l1.3,1.3L37.8,33.8z M44.3,27.3l-0.9,0.9l-1.3-1.3L43,26c0.4-0.4,0.9-0.4,1.3,0C44.7,26.4,44.7,26.9,44.3,27.3z"/>
			</g>
		</g>
	</g>
	<path class="st2" d="M33.2,41.5h-5.5c-0.3,0-0.5-0.2-0.5-0.5s0.2-0.5,0.5-0.5h5.5c0.3,0,0.5,0.2,0.5,0.5S33.5,41.5,33.2,41.5z"/>
	<path class="st3" d="M28.8,35.3h-8.6c-0.3,0-0.5-0.2-0.5-0.5s0.2-0.5,0.5-0.5h8.6c0.3,0,0.5,0.2,0.5,0.5S29.1,35.3,28.8,35.3z"/>
	<path class="st3" d="M28.8,32.3h-8.6c-0.3,0-0.5-0.2-0.5-0.5s0.2-0.5,0.5-0.5h8.6c0.3,0,0.5,0.2,0.5,0.5S29.1,32.3,28.8,32.3z"/>
	<path class="st3" d="M28.8,29.3h-8.6c-0.3,0-0.5-0.2-0.5-0.5s0.2-0.5,0.5-0.5h8.6c0.3,0,0.5,0.2,0.5,0.5S29.1,29.3,28.8,29.3z"/>
	<path class="st3" d="M32.8,26.3H20.2c-0.3,0-0.5-0.2-0.5-0.5s0.2-0.5,0.5-0.5h12.6c0.3,0,0.5,0.2,0.5,0.5S33.1,26.3,32.8,26.3z"/>
</g>
</svg>
