<?xml version="1.0" encoding="UTF-8"?>
<svg width="56px" height="56px" viewBox="0 0 56 56" version="1.1" xmlns="http://www.w3.org/2000/svg" xmlns:xlink="http://www.w3.org/1999/xlink">
    <!-- Generator: Sketch 51.3 (57544) - http://www.bohemiancoding.com/sketch -->
    <title>ico_wiki</title>
    <desc>Created with Sketch.</desc>
    <defs>
        <linearGradient x1="50%" y1="6.63152673%" x2="50%" y2="98.8213512%" id="linearGradient-1">
            <stop stop-color="#FF88B7" offset="0%"></stop>
            <stop stop-color="#9F046E" offset="100%"></stop>
        </linearGradient>
        <linearGradient x1="50%" y1="0%" x2="50%" y2="100%" id="linearGradient-2">
            <stop stop-color="#FFFFFF" offset="0%"></stop>
            <stop stop-color="#FFFFFF" stop-opacity="0.496122056" offset="100%"></stop>
        </linearGradient>
    </defs>
    <g id="ico_wiki" stroke="none" stroke-width="1" fill="none" fill-rule="evenodd">
        <rect id="Rectangle-2" fill="url(#linearGradient-1)" x="0" y="0" width="56" height="56"></rect>
        <g id="note" transform="translate(9.000000, 9.000000)" fill="url(#linearGradient-2)" fill-rule="nonzero">
            <path d="M15.3856048,1.11994936 L15.3856048,2.22366337 L13.1590423,2.22366337 L13.1590423,1.11994936 C13.1590423,0.505325336 13.6576996,0.00666809453 14.2723236,0.00666809453 C14.8866577,0.00666809453 15.3856048,0.505325336 15.3856048,1.11994936 Z M11.3035736,1.11560059 L11.3035736,2.22366337 L9.07701109,2.22366337 L9.07701109,1.11560059 C9.07701109,0.500976562 9.57566832,0.00231933594 10.1902923,0.00231933594 C10.8046265,0.00231933594 11.3035736,0.500976562 11.3035736,1.11560059 Z M7.22154234,1.11994936 L7.22154234,2.22366337 L4.99497984,2.22366337 L4.99497984,1.11994936 C4.99497984,0.505325336 5.49363707,0.00666809453 6.10826109,0.00666809453 C6.72259521,0.00666809453 7.22154234,0.505325336 7.22154234,1.11994936 Z M23.5496673,1.11328125 L23.5496673,2.22366337 L21.3231048,2.22366337 L21.3231048,1.11328125 C21.3231048,0.498657227 21.8217621,6.33174069e-17 22.4363861,6.33174069e-17 C23.0507202,6.33174069e-17 23.5496673,0.498657227 23.5496673,1.11328125 Z M19.4676361,1.11763002 L19.4676361,2.22366337 L17.2410736,2.22366337 L17.2410736,1.11763002 C17.2410736,0.503295898 17.7397308,0.00434875859 18.3543548,0.00434875859 C18.968689,0.00434875859 19.4676361,0.503295898 19.4676361,1.11763002 Z M25.3048248,2.22366337 C27.0912933,2.22366337 28.5446472,3.67672726 28.5446472,5.4631958 L28.5446472,34.7604675 C28.5446472,36.546936 27.0912933,38 25.3048248,38 L3.23953251,38 C1.45306396,38 3.37507799e-14,36.546936 3.37507799e-14,34.7604675 L3.37507799e-14,5.4631958 C3.37507799e-14,3.67672726 1.45306396,2.22366337 3.23953251,2.22366337 L4.99497984,2.22366337 L4.99497984,5.56350712 C4.99497984,6.17784117 5.49363707,6.67678837 6.10826109,6.67678837 C6.72259521,6.67678837 7.22154234,6.17784117 7.22154234,5.56350712 L7.22154234,2.22366337 L9.07701109,2.22366337 L9.07701109,5.55828857 C9.07701109,6.17349247 9.57566832,6.67156982 10.1902923,6.67156982 C10.8046265,6.67156982 11.3035736,6.17349247 11.3035736,5.55828857 L11.3035736,2.22366337 L13.1590423,2.22366337 L13.1590423,5.56350712 C13.1590423,6.17784117 13.6576996,6.67678837 14.2723236,6.67678837 C14.8866577,6.67678837 15.3856048,6.17784117 15.3856048,5.56350712 L15.3856048,2.22366337 L17.2410736,2.22366337 L17.2410736,5.56118778 C17.2410736,6.1758118 17.7397308,6.67446903 18.3543548,6.67446903 C18.968689,6.67446903 19.4676361,6.1758118 19.4676361,5.56118778 L19.4676361,2.22366337 L21.3231048,2.22366337 L21.3231048,5.55596924 C21.3231048,6.17117313 21.8217621,6.66925049 22.4363861,6.66925049 C23.0507202,6.66925049 23.5496673,6.17117313 23.5496673,5.55596924 L23.5496673,2.22366337 L25.3048248,2.22366337 Z M6.10826109,10.3422088 C5.49334717,10.3422088 4.99497984,10.8405762 4.99497984,11.4554901 C4.99497984,12.070404 5.49334717,12.5687713 6.10826109,12.5687713 L22.4363861,12.5687713 C23.0510101,12.5687713 23.5496673,12.070404 23.5496673,11.4554901 C23.5496673,10.8405762 23.0510101,10.3422088 22.4363861,10.3422088 L6.10826109,10.3422088 Z M6.10826109,14.7944641 C5.49334717,14.7944641 4.99497984,15.2928314 4.99497984,15.9077454 C4.99497984,16.5223694 5.49334717,17.0210266 6.10826109,17.0210266 L20.2098236,17.0210266 C20.8244476,17.0210266 21.3231048,16.5223694 21.3231048,15.9077454 C21.3231048,15.2928314 20.8244476,14.7944641 20.2098236,14.7944641 L6.10826109,14.7944641 Z M6.10826109,19.2316437 C5.49334717,19.2316437 4.99497984,19.7303009 4.99497984,20.3449249 C4.99497984,20.9598389 5.49334717,21.4582062 6.10826109,21.4582062 L12.2356567,21.4582062 C12.8505707,21.4582062 13.348938,20.9598389 13.348938,20.3449249 C13.348938,19.7303009 12.8505707,19.2316437 12.2356567,19.2316437 L6.10826109,19.2316437 Z M22.6126556,34.1606293 C23.2272796,34.1606293 23.7259369,33.662262 23.7259369,33.047348 C23.7259369,32.432724 23.2272796,31.9340668 22.6126556,31.9340668 L19,31.9340668 C18.3850861,31.9340668 17.8867188,32.432724 17.8867188,33.047348 C17.8867188,33.662262 18.3850861,34.1606293 19,34.1606293 L22.6126556,34.1606293 Z M22.6126556,25.9104614 C23.2272796,25.9104614 23.7259369,25.4120941 23.7259369,24.7971802 C23.7259369,24.1822663 23.2272796,23.6838989 22.6126556,23.6838989 L6.10826109,23.6838989 C5.49334717,23.6838989 4.99497984,24.1822663 4.99497984,24.7971802 C4.99497984,25.4120941 5.49334717,25.9104614 6.10826109,25.9104614 L22.6126556,25.9104614 Z M31,8.89697266 L38.3717194,8.89697266 L38.3717194,20.0248566 L31,20.0248566 L31,8.89697266 Z M31,29.1265106 L31,22.2514191 L38.3717194,22.2514191 L38.3717194,29.1265106 C38.3717194,31.4356995 37.4402161,33.6352997 35.798996,35.2397003 L35.798996,36.8864289 C35.798996,37.5013428 35.3006287,37.9997101 34.6857148,37.9997101 C34.0710908,37.9997101 33.5724335,37.5013428 33.5724335,36.8864289 L33.5724335,35.2397003 C31.9315033,33.6352997 31,31.4356995 31,29.1265106 Z M36.0283203,2.99542236 C37.3204804,2.99542236 38.3717194,4.04608154 38.3717194,5.33737179 L38.3717194,6.67041016 L31,6.67041016 L31,5.33737179 C31,4.04608154 32.0512391,2.99542236 33.3431092,2.99542236 L33.5724335,2.99542236 L33.5724335,1.11328125 C33.5724335,0.498367328 34.0710908,6.33174069e-17 34.6857148,6.33174069e-17 C35.3006287,6.33174069e-17 35.798996,0.498367328 35.798996,1.11328125 L35.798996,2.99542236 L36.0283203,2.99542236 Z" id="Combined-Shape"></path>
        </g>
    </g>
</svg>