<?xml version="1.0" encoding="utf-8"?>
<!-- Generator: Adobe Illustrator 23.0.1, SVG Export Plug-In . SVG Version: 6.00 Build 0)  -->
<svg version="1.1" id="Capa_1" xmlns="http://www.w3.org/2000/svg" xmlns:xlink="http://www.w3.org/1999/xlink" x="0px" y="0px"
	 viewBox="0 0 20 20" style="enable-background:new 0 0 20 20;" xml:space="preserve">
<style type="text/css">
	.st0{fill:#020203;}
</style>
<g>
	<g>
		<g>
			<g>
				<path class="st0" d="M17,7.2c-0.5-0.5-1.3-0.5-1.8,0c-0.1,0.1-1.1,1.1-1.3,1.3V5.1c0-0.3-0.1-0.7-0.4-0.9L12.4,3
					c-0.2-0.2-0.6-0.4-0.9-0.4H4.2c-0.7,0-1.3,0.6-1.3,1.3v12c0,0.7,0.6,1.3,1.3,1.3h8.5c0.7,0,1.3-0.6,1.3-1.3v-3.8L17,9.1
					C17.5,8.5,17.5,7.7,17,7.2z M11.4,3.5c0.1,0,0.2,0,0.4,0.1l1.2,1.2c0.1,0.1,0.1,0.3,0.1,0.4h-1.7V3.5z M13.1,15.9
					c0,0.2-0.2,0.4-0.4,0.4H4.2c-0.2,0-0.4-0.2-0.4-0.4V3.9c0-0.2,0.2-0.4,0.4-0.4h6.4v2.1C10.6,5.9,10.8,6,11,6h2.1v3.3l-1.3,1.3
					l-0.6,0.6c0,0-0.1,0.1-0.1,0.2l-0.6,1.8c0,0.1,0,0.3,0.1,0.4s0.3,0.1,0.4,0.1l1.8-0.6c0,0,0.1,0,0.2-0.1l0,0L13.1,15.9
					L13.1,15.9z M12.1,11.5l0.6,0.6l-0.2,0.2l-0.9,0.3l0.3-0.9L12.1,11.5z M13.4,11.5l-0.6-0.6c0.3-0.3,1.7-1.7,2-2l0.6,0.6
					L13.4,11.5z M16.4,8.4L16,8.8l-0.6-0.6l0.4-0.4c0.2-0.2,0.4-0.2,0.6,0C16.6,8,16.6,8.2,16.4,8.4z"/>
			</g>
		</g>
	</g>
	<path class="st0" d="M11.2,15.1H8.6c-0.1,0-0.2-0.1-0.2-0.2s0.1-0.2,0.2-0.2h2.6c0.1,0,0.2,0.1,0.2,0.2S11.3,15.1,11.2,15.1z"/>
	<path class="st0" d="M9.1,12.2H5.1c-0.1,0-0.2-0.1-0.2-0.2c0-0.1,0.1-0.2,0.2-0.2h4.1c0.1,0,0.2,0.1,0.2,0.2
		C9.4,12.1,9.2,12.2,9.1,12.2z"/>
	<path class="st0" d="M9.1,10.8H5.1c-0.1,0-0.2-0.1-0.2-0.2s0.1-0.2,0.2-0.2h4.1c0.1,0,0.2,0.1,0.2,0.2S9.2,10.8,9.1,10.8z"/>
	<path class="st0" d="M9.1,9.3H5.1c-0.1,0-0.2-0.1-0.2-0.2c0-0.1,0.1-0.2,0.2-0.2h4.1c0.1,0,0.2,0.1,0.2,0.2
		C9.4,9.2,9.2,9.3,9.1,9.3z"/>
	<path class="st0" d="M11,7.9H5.1c-0.1,0-0.2-0.1-0.2-0.2s0.1-0.2,0.2-0.2H11c0.1,0,0.2,0.1,0.2,0.2S11.1,7.9,11,7.9z"/>
</g>
</svg>
